<?xml version="1.0" encoding="utf-8"?>
<!-- Generator: Adobe Illustrator 13.0.0, SVG Export Plug-In . SVG Version: 6.00 Build 14948)  -->
<!DOCTYPE svg PUBLIC "-//W3C//DTD SVG 1.1//EN" "http://www.w3.org/Graphics/SVG/1.1/DTD/svg11.dtd">
<svg version="1.1" id="Categoria" xmlns="http://www.w3.org/2000/svg" xmlns:xlink="http://www.w3.org/1999/xlink" x="0px" y="0px"
	 width="31.998px" height="32px" viewBox="-1.5 -1.5 31.998 32" enable-background="new -1.5 -1.5 31.998 32" xml:space="preserve">
<g>
	<g>
		<path fill="#29770E" d="M14.675,17.323c0.195,0,0.391,0,0.587,0c-0.033,0.478,0.694,0.1,0.978,0.221c0.196,0,0.391,0,0.587,0
			c0.061,0.298,0.488,0.183,0.781,0.22c0.131,0,0.262,0,0.392,0c0.065,0,0.131,0,0.196,0c0.011,0.135,0.029,0.262,0.195,0.221
			c-2.64-0.74-4.947,10.859-1.564,11.463c-0.756,0.117-0.955-0.395-1.761-0.221C14.684,25.622,14.937,20.352,14.675,17.323z"/>
		<path fill="#71C853" d="M20.349,20.629c1.457,0.563,3.336,0.65,4.891,1.104c0.089,2.778,0.479,6.347,0,9.037
			c-1.824-0.664-4.227-0.676-5.479-1.984c1.672-0.835,3.141-1.899,4.499-3.085c-1.177-2.054-3.067-3.304-4.694-4.851
			c0.043-0.172,0.164-0.257,0.393-0.221C20.087,20.629,20.217,20.629,20.349,20.629z"/>
		<path fill="#348D15" d="M24.651,13.796c1.229,0.182,2.104,0.134,3.521,0.44c0.062,0.299,0.489,0.183,0.782,0.221
			c0.787-0.151,1.117,0.211,1.761,0.221c0.13,0,0.261,0,0.392,0c0.086,0.196,0.172,0.395,0.393,0.44c0,0.073,0,0.147,0,0.221
			c-2.023,0.088-3.932,2.171-5.479,3.526c0.244,1.709,0.021,3.943,0.588,5.29c1.149,0.476,3.457-0.373,4.303-0.22
			c0-0.367,0-0.735,0-1.103c0.064,0,0.131,0,0.195,0c-0.035,0.188,0.076,0.208,0.195,0.222c0,0.071,0,0.146,0,0.219
			c-0.451,0.74-0.068,2.422-0.195,3.526c-0.166-0.04-0.186,0.086-0.195,0.222c-0.699,0.461-1.311,1.021-1.762,1.763
			c-0.064,0-0.129,0-0.194,0c-0.269,0.303-1.245,0.929-0.978,1.103c-0.593,0.656-1.313,1.168-1.957,1.764c-0.131,0-0.261,0-0.392,0
			c-0.808-0.338-1.659-0.629-2.739-0.66c-0.064,0-0.131,0-0.195,0c-0.977-0.518-2.272-0.672-3.521-0.883c-0.063,0-0.13,0-0.194,0
			c-0.498-0.467-1.498-0.368-2.151-0.66c-3.382-0.604-1.075-12.203,1.563-11.463c0.131,0,0.262,0,0.392,0
			c2.437-1.077,4.438-2.642,6.651-3.967C25.142,13.979,24.712,14.095,24.651,13.796z M25.042,30.989
			c0.193,0.676,0.521-0.253,0.783-0.222c-0.07-4.035,0.177-8.429-0.195-12.123c-3.943-1.934-5.841,1.629-8.412,2.646
			c-0.881,1.874-1.878,4.54-1.565,7.054c2.381,1.651,6.038,1.868,9.196,2.646C24.912,30.989,24.978,30.989,25.042,30.989z"/>
		<path fill="#4DA82D" d="M25.042,30.989c1.15-2.316,0.615-8.087,0.195-10.802c-0.795,1.317-2.93,0.635-4.891,0.44
			c-0.131,0-0.261,0-0.391,0c-0.032-0.258-0.355-0.187-0.588-0.221c0.248,1.376,2.188,1.894,1.957,3.086
			c-2.417,0.43-4.252,1.291-4.695,4.85c2.174,1.519,5.689,1.525,8.217,2.646c-3.156-0.777-6.813-0.994-9.195-2.646
			c-0.313-2.514,0.684-5.18,1.565-7.054c2.571-1.016,4.468-4.578,8.412-2.646c0.372,3.695,0.125,8.09,0.195,12.125
			C25.563,30.736,25.235,31.665,25.042,30.989z"/>
		<path fill="#60B941" d="M19.957,20.629c-0.228-0.036-0.349,0.049-0.392,0.221c1.627,1.547,3.518,2.797,4.693,4.851
			c-1.359,1.186-2.828,2.25-4.499,3.085c1.251,1.31,3.653,1.32,5.478,1.984c0.479-2.69,0.09-6.259,0-9.037
			c-1.555-0.452-3.434-0.539-4.891-1.104c1.961,0.193,4.096,0.877,4.891-0.439c0.42,2.715,0.955,8.483-0.195,10.801
			c-0.064,0-0.13,0-0.193,0c-2.527-1.12-6.043-1.127-8.218-2.646c0.443-3.559,2.278-4.42,4.695-4.85
			c0.229-1.192-1.709-1.71-1.957-3.086C19.601,20.443,19.925,20.371,19.957,20.629z"/>
		<path fill="#29770E" d="M31.499,15.339c0,0.294,0,0.588,0,0.882c-0.448,0.376-0.073,1.683-0.195,2.423c0,0.369,0,0.736,0,1.104
			c-0.447,0.307-0.074,1.535-0.195,2.205c0,0.293,0,0.587,0,0.882c-0.065,0-0.131,0-0.196,0c0,0.366,0,0.733,0,1.103
			c-0.845-0.153-3.152,0.694-4.304,0.22c-0.564-1.347-0.344-3.581-0.588-5.29C27.567,17.51,29.476,15.427,31.499,15.339z"/>
	</g>
	<g>
		<path fill="#9F891B" d="M12.718,17.104c0.196,0,0.391,0,0.587,0c-1.292,3.065,0.032,9.073-0.392,12.563
			c-0.586,0.441-1.222,0.828-1.565,1.544c-0.326,0-0.652,0-0.978,0c-0.065,0-0.131,0-0.196,0c0-0.073,0-0.147,0-0.221
			c0.454,0.069,0.751-0.036,0.978-0.222c0-3.968,0-7.935,0-11.902C11.264,17.814,12.475,18.004,12.718,17.104z"/>
		<path fill="#F0DE64" d="M10.371,18.425c0.455,1.325,0.067,3.599,0.195,5.29c-0.326,1.449-0.332,3.489-0.586,4.409
			c-0.261,0-0.522,0-0.783,0c0.707,0.981-0.864,0.474-1.174,1.763c-1.479-0.537-3.458-0.512-4.891-1.103c0.587,0,1.174,0,1.761,0
			C6.799,25.421,11.408,25.104,10.371,18.425z"/>
		<path fill="#D9CC69" d="M5.089,13.796c0.558-0.326,1.294-0.451,1.761-0.882c0.065,0,0.13,0,0.195,0
			c0.328,0.366,0.156,1.294,0.196,1.983c-0.153-0.997-0.417-2.157-1.37-1.102c-0.573-0.058-0.601,0.498-1.173,0.44
			C4.746,13.997,5.087,14.087,5.089,13.796z"/>
		<path fill="#DCC43C" d="M5.872,13.796c0.952-1.056,1.217,0.104,1.37,1.102c0,0.221,0,0.441,0,0.661
			c-0.036,0.481,0.16,0.702,0.586,0.662c0.131,0,0.261,0,0.392,0c0.032,0.258,0.356,0.186,0.587,0.221
			c0.164,0.255,0.258,0.59,0.195,1.103c1.365-0.064,2.567,1.217,1.761,2.864c-0.104-0.763,0.291-2.091-0.391-2.203
			c-0.623-0.181-1.44-0.142-1.956-0.44c-0.061-0.3-0.49-0.185-0.783-0.221c-0.065,0-0.13,0-0.196,0
			c-0.649-0.443-1.793-0.331-2.347-0.883c0.177-1.198-0.168-1.033,0.195-2.425C5.8,14.293,5.927,14.69,5.872,13.796z"/>
		<path fill="#EBD651" d="M3.72,14.678C3.445,15.177,2.928,15.402,2.742,16c0.447,0.23,0.693,0.688,1.369,0.661
			c0,0.073,0,0.147,0,0.221c-0.948,0.039-1.67-0.175-2.347-0.44c0.14-0.599-0.923,0.158-0.783-0.441
			c0.158-0.189,0.536-0.131,0.587-0.441c0.582-0.078,0.993-0.351,1.37-0.661c0.152-0.049,0.386-0.006,0.391-0.22
			C3.459,14.678,3.589,14.678,3.72,14.678z"/>
		<path fill="#F7E98E" d="M0.199,16.221C0.242,16.049,0.363,15.965,0.59,16c0.065,0,0.13,0,0.195,0
			c0.029,0.481,0.493,0.474,0.979,0.441c0.677,0.266,1.399,0.479,2.347,0.44c0.499,0.469,1.498,0.369,2.152,0.662
			c1.139,0.479,2.521,0.686,3.717,1.102c-2.034,3.328-6.122,5.707-7.825,9.258c-0.231,0.595-1.02,0-1.37,0
			c-0.112-0.387,0.236-1.295-0.195-1.321c0-0.733,0-1.47,0-2.205c0-0.221,0-0.44,0-0.661c0.229,0.036,0.165,0.402,0.195,0.661
			c0.574-0.187-0.117-0.709,0-1.103c0.644,0.135,1.469-1.229,1.957-1.983c2.484-0.167,1.824-2.742,3.913-3.085
			C4.842,17.159,2.134,17.125,0.199,16.221z"/>
		<path fill="#FBEFA9" d="M0.199,16.221c1.936,0.904,4.644,0.938,6.456,1.984c-2.088,0.343-1.429,2.918-3.913,3.085
			c-0.487,0.756-1.313,2.118-1.957,1.983c-0.117,0.394,0.574,0.916,0,1.103c-0.03-0.259,0.034-0.625-0.195-0.661
			c-0.119-0.527,0.246-1.599-0.196-1.763c-0.127-1.181,0.257-2.935-0.195-3.747c0-0.074,0-0.146,0-0.221
			C0.199,17.396,0.199,16.809,0.199,16.221z"/>
		<path fill="#C8B02F" d="M9.001,30.77c0.005-0.215,0.24-0.172,0.391-0.222c0.131,0,0.261,0,0.392,0
			c0.061,0.3,0.49,0.183,0.782,0.222c0.394-0.658,0.111-2.08,0.196-3.086c0-2.426,0-4.85,0-7.274
			c0.806-1.647-0.396-2.931-1.761-2.864c0.063-0.513-0.031-0.848-0.195-1.103c0.065,0,0.13,0,0.195,0c0.13,0,0.261,0,0.391,0
			c0.061,0.299,0.49,0.183,0.783,0.22c0.261,0,0.521,0,0.783,0c0.065,0,0.13,0,0.195,0c-0.033,0.479,0.694,0.102,0.979,0.221
			c0.13,0,0.261,0,0.391,0c-0.036,0.188,0.076,0.208,0.195,0.221c-0.243,0.901-1.455,0.713-1.565,1.764c0,3.969,0,7.936,0,11.902
			c-0.227,0.186-0.524,0.291-0.978,0.222c-0.261,0-0.521,0-0.783,0C9.388,30.773,9.153,30.818,9.001,30.77z"/>
		<path fill="#8A7618" d="M13.306,17.104c0.151,0.049,0.385,0.006,0.391,0.221c0.465,2.402-0.128,7.711,0.391,11.24
			c-0.061,0.521-0.679,0.41-0.587,1.103c-0.696,0.466-1.458,0.854-1.956,1.544c-0.065,0-0.131,0-0.196,0
			c0.343-0.716,0.979-1.104,1.565-1.544C13.338,26.177,12.013,20.169,13.306,17.104z"/>
		<path fill="#6D6513" d="M13.697,17.323c0.326,0,0.652,0,0.978,0c0.262,3.026,0.009,8.299,0.391,11.901
			c-0.539-0.815-0.958,0.142-1.565,0.44c-0.092-0.69,0.526-0.582,0.587-1.103C13.568,25.034,14.162,19.727,13.697,17.323z"/>
		<path fill="#E2CB48" d="M5.872,13.796c0.055,0.895-0.072,0.497-0.587,0.44c-0.363,1.392-0.019,1.227-0.195,2.425
			c0.554,0.552,1.698,0.438,2.347,0.883c-0.391,0-0.782,0-1.174,0c-0.654-0.293-1.653-0.194-2.152-0.662c0-0.073,0-0.147,0-0.221
			C3.435,16.688,3.189,16.23,2.742,16c0.187-0.598,0.704-0.823,0.978-1.322c0.365-0.03,0.654-0.146,0.782-0.441
			c0.065,0,0.131,0,0.196,0C5.271,14.294,5.299,13.738,5.872,13.796z"/>
		<path fill="#F4E378" d="M7.632,17.544c0.061,0.298,0.49,0.183,0.783,0.22c0.516,0.301,1.333,0.262,1.956,0.441
			c0,0.072,0,0.146,0,0.22c1.037,6.681-3.572,6.996-5.478,10.359c-0.587,0-1.174,0-1.761,0c-0.13,0-0.261,0-0.391,0
			c0.088-0.359-1.066-0.359-0.978,0c-0.131,0-0.261,0-0.391,0c-0.065,0-0.131,0-0.196,0c0-0.073,0-0.146,0-0.22
			c0.152-0.049,0.386-0.006,0.391-0.222c-0.61,0.111-0.947-0.519-0.587,0.222c-0.158-0.043-0.195-0.222-0.391-0.222
			c0-0.146,0-0.294,0-0.44c0.065,0,0.13,0,0.195,0c0.35,0,1.138,0.595,1.37,0c1.703-3.551,5.792-5.93,7.825-9.258
			c-1.196-0.416-2.579-0.621-3.717-1.102c0.392,0,0.783,0,1.174,0C7.502,17.544,7.567,17.544,7.632,17.544z"/>
		<path fill="#EBD651" d="M3.133,28.784c1.433,0.591,3.412,0.563,4.891,1.103c0.31-1.289,1.88-0.779,1.174-1.763
			c0.261,0,0.521,0,0.783,0c0.254-0.92,0.26-2.96,0.586-4.409c0,1.322,0,2.646,0,3.969c0,0.66,0,1.321,0,1.982
			c-0.065,0-0.13,0-0.195,0c0.089,0.689-0.418,0.705-0.979,0.662c-0.13,0-0.261,0-0.391,0c-0.612-0.2-1.961-0.719-2.543-0.221
			c-0.598,0.16-0.575-0.381-1.174-0.222c-0.065,0-0.13,0-0.195,0c-0.198-0.364-0.831-0.239-1.174-0.44
			c-0.286-0.485-1.28-0.174-1.565-0.661c0.13,0,0.261,0,0.391,0C2.872,28.784,3.002,28.784,3.133,28.784z"/>
	</g>
	<g>
		<path fill="#3B93D7" d="M13.109,16.661c1.5,0.073,2.704,0.481,4.305,0.44c1.175-3.231,0.575-8.461,0.782-12.785
			c-0.348-0.196-0.498-0.615-1.176-0.44c-0.063,0-0.129,0-0.193,0c-0.023-0.487-0.83-0.094-1.174-0.221c-0.064,0-0.13,0-0.195,0
			c-0.084-0.493-0.964-0.09-1.37-0.221c-0.13,0-0.261,0-0.391,0c-0.024-0.486-0.83-0.094-1.174-0.221c-0.13,0-0.261,0-0.391,0
			c-1.116-0.358-2.355-0.578-3.717-0.661c0.708-0.745,2.074-0.748,2.934-1.322c0.065,0,0.13,0,0.196,0
			c0.501-0.023,0.932-0.125,1.173-0.44c0.119-0.381,0.928,0.017,0.979-0.441c0.586,0,1.173,0,1.761,0
			c0.061,0.3,0.49,0.183,0.782,0.221c0.065,0,0.131,0,0.196,0c0,0.073,0,0.147,0,0.221c0.342,0.201,0.975,0.075,1.172,0.44
			c-0.828,1.277,0.02,1.931,0.783,3.086c0,4.262,0,8.523,0,12.786c-0.39,0.002-0.25,0.602-0.783,0.44c-0.194,0-0.392,0-0.588,0
			c-0.061-0.3-0.488-0.185-0.782-0.221c-0.325,0-0.651,0-0.978,0c-0.196,0-0.392,0-0.587,0c-0.343-0.351-1.042-0.296-1.565-0.441
			C13.109,16.809,13.109,16.734,13.109,16.661z"/>
		<g>
			<path fill="#164A72" d="M24.651,2.113c0,0.44,0,0.882,0,1.322c-0.455,1.398-0.066,3.746-0.195,5.511c0,0.221,0,0.441,0,0.661
				c0,1.323,0,2.646,0,3.968c0,0.074,0,0.146,0,0.221c0,0.146,0,0.294,0,0.44c-1.688,1.479-3.946,2.314-5.674,3.749
				c-0.131,0-0.262,0-0.391,0c-0.166,0.039-0.186-0.088-0.195-0.221c1.439-0.691,0.648-2.875,0.586-4.41
				c-0.117-2.922,0.09-6.245,0-9.037C20.409,3.343,22.733,2.03,24.651,2.113z"/>
			<path fill="#90CAF7" d="M13.501,3.656c0.196,0,0.391,0,0.587,0c0.195,0,0.391,0,0.587,0c-0.033,0.478,0.694,0.1,0.978,0.221
				c0.065,0,0.131,0,0.196,0c0.023,0.486,0.83,0.094,1.171,0.22c0.131,0,0.263,0,0.394,0c0.853,1.333-0.569,2.029-1.174,2.425
				c-0.587,0.385-0.915,1.428-1.761,2.204c-0.901,0.827-2.358,1.18-2.934,1.764c-0.274,0.278-0.193,1.079-0.392,1.323
				c-1.05,1.292-3.004,1.738-3.717,3.085c0-0.588,0-1.176,0-1.763c-0.123-0.67,0.25-1.898-0.195-2.204
				c0.298-0.799-0.163-1.802,0-3.087c0.511,0.307-0.095,1.871,0.391,2.204c2.755-1.45,4.71-3.803,6.847-5.951
				C14.567,3.483,13.413,4.27,13.501,3.656z"/>
			<path fill="#2F80BF" d="M16.436,0.57c0.391,0,0.782,0,1.172,0c0.064,0,0.131,0,0.195,0c-0.033,0.478,0.693,0.1,0.979,0.221
				c0.326,0,0.652,0,0.979,0c-0.031,0.478,0.694,0.1,0.979,0.22c0.325,0,0.651,0,0.979,0c0.022,0.487,0.828,0.094,1.172,0.221
				c0.393,0,0.782,0,1.174,0c0,0.073,0,0.146,0,0.221c-1.799,0.838-3.739,1.517-5.478,2.425C18.24,8.063,19.306,15.15,18,17.764
				c-0.13,0-0.261,0-0.392,0c0-0.074,0-0.146,0-0.22c0.533,0.16,0.395-0.438,0.783-0.44c0-4.263,0-8.523,0-12.786
				c-0.765-1.155-1.611-1.809-0.783-3.086c-0.197-0.365-0.83-0.239-1.172-0.44C16.436,0.718,16.436,0.644,16.436,0.57z"/>
			<path fill="#5EB0EF" d="M17.021,3.877c0.678-0.175,0.828,0.244,1.176,0.44c-0.207,4.323,0.393,9.553-0.782,12.785
				c-1.601,0.041-2.804-0.367-4.305-0.44c-0.13,0-0.26,0-0.391,0c0.033-0.478-0.693-0.101-0.978-0.22c-0.261,0-0.522,0-0.783,0
				c-0.065,0-0.13,0-0.196,0C10.276,16.106,9.575,16.016,8.806,16c-0.196,0-0.391,0-0.587,0c-0.044-0.317-0.584-0.077-0.587-0.441
				c5.041,1.583,6.675-2.971,9.977-4.628c0.09-2.127,0.709-4.755,0.195-6.834c-0.131,0-0.261,0-0.391,0c-0.131,0-0.262,0-0.393,0
				C17.021,4.023,17.021,3.95,17.021,3.877z"/>
			<path fill="#79BFF5" d="M7.437,15.559c0-0.22,0-0.44,0-0.661c0.712-1.347,2.667-1.793,3.717-3.085
				c0.198-0.244,0.117-1.045,0.392-1.323c0.576-0.584,2.033-0.938,2.934-1.764c0.846-0.776,1.174-1.819,1.761-2.204
				c0.605-0.396,2.027-1.092,1.174-2.425c0.13,0,0.26,0,0.391,0c0.514,2.079-0.105,4.707-0.195,6.834
				c-3.301,1.657-4.937,6.211-9.977,4.628C7.567,15.559,7.502,15.559,7.437,15.559z"/>
			<path fill="#B4DDFC" d="M7.437,2.554c0.043,0.172,0.164,0.257,0.391,0.22c0.065,0,0.131,0,0.196,0
				C8.055,3.032,8.38,2.961,8.61,2.995c0.552,0.333,1.351,0.389,2.152,0.44c0.065,0,0.13,0,0.196,0
				c-0.302,1.232-2.022,2.697-3.521,3.307C7.42,6.393,7.53,5.901,7.241,5.86C7.368,4.827,6.985,3.221,7.437,2.554z"/>
			<path fill="#A3D5FA" d="M10.958,3.436c0.195,0,0.391,0,0.587,0c0.196,0,0.391,0,0.587,0c-0.033,0.479,0.694,0.101,0.978,0.221
				c0.131,0,0.261,0,0.392,0c-0.088,0.613,1.066-0.173,0.978,0.44c-2.137,2.148-4.092,4.501-6.847,5.951
				C7.146,9.715,7.752,8.15,7.241,7.844c0-0.66,0-1.322,0-1.983C7.53,5.901,7.42,6.393,7.437,6.742
				C8.936,6.133,10.656,4.668,10.958,3.436z"/>
		</g>
	</g>
</g>
</svg>
