<?xml version="1.0" encoding="utf-8"?>
<!-- Generator: Adobe Illustrator 13.0.0, SVG Export Plug-In . SVG Version: 6.00 Build 14948)  -->
<!DOCTYPE svg PUBLIC "-//W3C//DTD SVG 1.1//EN" "http://www.w3.org/Graphics/SVG/1.1/DTD/svg11.dtd">
<svg version="1.1" id="Material" xmlns="http://www.w3.org/2000/svg" xmlns:xlink="http://www.w3.org/1999/xlink" x="0px" y="0px"
	 width="18px" height="18px" viewBox="8.349 10 18 18" enable-background="new 8.349 10 18 18" xml:space="preserve">
<path fill="#35870A" d="M10.951,16.354c0.908,2.354,1.613,4.149,2.496,6.526c0.207-0.626,2.703-9.188,6.188-11.881
	c-0.242,0.808-0.363,4.798,0.528,5.621c-3.89,3.173-6.267,10.332-6.267,10.379c-1.705-3.328-3.08-6.938-6.063-8.993
	C7.965,17.943,9.973,17.406,10.951,16.354z"/>
<path fill="#7AC453" d="M10.958,16.354c0.854,2.219,1.793,4.607,2.69,6.65c0.192-0.591,2.83-9.007,5.828-11.656
	c-0.229,0.762-0.379,4.439,0.461,5.215c-3.625,2.702-5.904,9.201-6.083,10c-0.385-1.425-2.762-7.424-5.771-8.57
	C8.204,17.934,10.037,17.344,10.958,16.354z"/>
<path fill="#3EAB0C" d="M10.867,16.769c0.83,2.154,1.819,4.277,2.63,6.455c0.188-0.573,2.75-8.994,5.666-11.57
	c-0.223,0.741-0.377,4.146,0.441,4.896c-3.721,2.593-5.847,9.685-5.847,9.732c-1.181-2.585-2.673-6.312-5.403-8.196
	C8.474,18.026,9.973,17.73,10.867,16.769z"/>
</svg>
